<?xml version="1.0" encoding="UTF-8" standalone="no"?>
<!-- Created with Inkscape (http://www.inkscape.org/) -->

<svg
   xmlns:dc="http://purl.org/dc/elements/1.1/"
   xmlns:cc="http://creativecommons.org/ns#"
   xmlns:rdf="http://www.w3.org/1999/02/22-rdf-syntax-ns#"
   xmlns:svg="http://www.w3.org/2000/svg"
   xmlns="http://www.w3.org/2000/svg"
   xmlns:sodipodi="http://sodipodi.sourceforge.net/DTD/sodipodi-0.dtd"
   xmlns:inkscape="http://www.inkscape.org/namespaces/inkscape"
   id="svg2"
   version="1.1"
   inkscape:version="0.48.4 r9939"
   width="231"
   height="81"
   xml:space="preserve"
   sodipodi:docname="nebopassgen.svg"
   inkscape:export-filename="/home/eniac/Documents/Nebo-logo/nebopassgen.png"
   inkscape:export-xdpi="35.755981"
   inkscape:export-ydpi="35.755981"><metadata
     id="metadata8"><rdf:RDF><cc:Work
         rdf:about=""><dc:format>image/svg+xml</dc:format><dc:type
           rdf:resource="http://purl.org/dc/dcmitype/StillImage" /><dc:title /></cc:Work></rdf:RDF></metadata><defs
     id="defs6"><clipPath
       clipPathUnits="userSpaceOnUse"
       id="clipPath16"><path
         d="m 0,595.28 841.89,0 L 841.89,0 0,0 0,595.28 z"
         id="path18"
         inkscape:connector-curvature="0" /></clipPath><clipPath
       clipPathUnits="userSpaceOnUse"
       id="clipPath48"><path
         d="m 314.943,439.747 54.293,0 0,-54.3 -54.293,0 0,54.3 z"
         id="path50"
         inkscape:connector-curvature="0" /></clipPath><clipPath
       clipPathUnits="userSpaceOnUse"
       id="clipPath68"><path
         d="m 442.406,492.006 32.171,0 0,-32.171 -32.171,0 0,32.171 z"
         id="path70"
         inkscape:connector-curvature="0" /></clipPath><clipPath
       clipPathUnits="userSpaceOnUse"
       id="clipPath92"><path
         d="m 501.731,210.755 78.161,0 0,-78.16 -78.161,0 0,78.16 z"
         id="path94"
         inkscape:connector-curvature="0" /></clipPath><clipPath
       clipPathUnits="userSpaceOnUse"
       id="clipPath112"><path
         d="m 350.095,218.422 46.005,0 0,-46.019 -46.005,0 0,46.019 z"
         id="path114"
         inkscape:connector-curvature="0" /></clipPath><clipPath
       clipPathUnits="userSpaceOnUse"
       id="clipPath132"><path
         d="m 484.756,415.223 53.498,0 0,-53.491 -53.498,0 0,53.491 z"
         id="path134"
         inkscape:connector-curvature="0" /></clipPath><clipPath
       clipPathUnits="userSpaceOnUse"
       id="clipPath148"><path
         d="m 381.553,333.271 58.252,0 0,-67.393 -58.252,0 0,67.393 z"
         id="path150"
         inkscape:connector-curvature="0" /></clipPath><clipPath
       clipPathUnits="userSpaceOnUse"
       id="clipPath164"><path
         d="m 355.341,208.304 26.753,0 0,-30.98 -26.753,0 0,30.98 z"
         id="path166"
         inkscape:connector-curvature="0" /></clipPath><clipPath
       clipPathUnits="userSpaceOnUse"
       id="clipPath180"><path
         d="m 508.804,190.424 44.037,0 0,-50.986 -44.037,0 0,50.986 z"
         id="path182"
         inkscape:connector-curvature="0" /></clipPath><clipPath
       clipPathUnits="userSpaceOnUse"
       id="clipPath196"><path
         d="m 490.34,402.933 31.014,0 0,-35.907 -31.014,0 0,35.907 z"
         id="path198"
         inkscape:connector-curvature="0" /></clipPath><clipPath
       clipPathUnits="userSpaceOnUse"
       id="clipPath212"><path
         d="m 447.14,485.376 18.082,0 0,-20.945 -18.082,0 0,20.945 z"
         id="path214"
         inkscape:connector-curvature="0" /></clipPath><clipPath
       clipPathUnits="userSpaceOnUse"
       id="clipPath228"><path
         d="m 321.393,427.541 29.878,0 0,-34.614 -29.878,0 0,34.614 z"
         id="path230"
         inkscape:connector-curvature="0" /></clipPath></defs><sodipodi:namedview
     pagecolor="#ffffff"
     bordercolor="#666666"
     borderopacity="1"
     objecttolerance="10"
     gridtolerance="10"
     guidetolerance="10"
     inkscape:pageopacity="0"
     inkscape:pageshadow="2"
     inkscape:window-width="1366"
     inkscape:window-height="729"
     id="namedview4"
     showgrid="false"
     inkscape:zoom="1.7941374"
     inkscape:cx="242.79874"
     inkscape:cy="37.141814"
     inkscape:window-x="0"
     inkscape:window-y="15"
     inkscape:window-maximized="1"
     inkscape:current-layer="g10" /><g
     id="g10"
     inkscape:groupmode="layer"
     inkscape:label="Nobosystems Logo"
     transform="matrix(1.25,0,0,-1.25,0,81.000024)"><g
       id="g12"
       transform="matrix(0.21082743,0,0,0.21082743,-3.8219365,-38.143645)"><g
         id="g14"
         clip-path="url(#clipPath16)"><g
           id="g20"
           transform="translate(21.1797,361.2754)"><path
             d="m 0,0 0,-88.374 c 1.924,-13.465 13.688,-16.671 19.542,-17.432 l 3.196,0 -0.552,72.957 83.481,-72.957 0.137,0 0,87.053 c -0.137,-8.083 -0.276,-13.473 -0.165,-2.649 C 105.792,-5.169 92.975,-1.045 86.568,0 L 85.044,0 85.501,-75.344 1.273,0 0,0 z"
             style="fill:#292929;fill-opacity:1;fill-rule:nonzero;stroke:none"
             id="path22"
             inkscape:connector-curvature="0" /></g><g
           id="g24"
           transform="translate(21.1797,361.2754)"><path
             d="m 0,0 0,-88.374 c 1.924,-13.465 13.688,-16.671 19.542,-17.432 l 3.196,0 -0.552,72.957 83.481,-72.957 0.137,0 0,87.053 c -0.137,-8.083 -0.276,-13.473 -0.165,-2.649 C 105.792,-5.169 92.975,-1.045 86.568,0 L 85.044,0 85.501,-75.344 1.273,0 0,0 z"
             style="fill:none;stroke:#292929;stroke-width:0.23;stroke-linecap:butt;stroke-linejoin:round;stroke-miterlimit:4;stroke-opacity:1;stroke-dasharray:none"
             id="path26"
             inkscape:connector-curvature="0" /></g><g
           id="g28"
           transform="translate(138.6372,361.0259)"><path
             d="m 0,0 c -0.387,0 -0.677,-0.317 -0.677,-0.698 l 0,-84.719 c 0.58,-16.553 14.601,-19.771 20.495,-20.388 l 84.617,0 c 0.374,0 0.678,0.299 0.678,0.686 l 0,20.676 -83.743,0 c -0.375,0 -0.679,0.297 -0.679,0.699 l 0,40.558 c 0,0.387 0.304,0.691 0.679,0.691 l 83.743,0 0,10.969 -83.743,0 c -0.375,0 -0.679,0.29 -0.679,0.685 l 0,19.736 c 0,0.373 0.304,0.684 0.679,0.684 l 83.743,0 0,9.723 c 0,0.381 -0.304,0.698 -0.678,0.698 L 0,0 z"
             style="fill:#292929;fill-opacity:1;fill-rule:nonzero;stroke:none"
             id="path30"
             inkscape:connector-curvature="0" /></g><g
           id="g32"
           transform="translate(276.5234,318.2407)"><path
             d="m 0,0 52.84,0 c 6.117,-0.761 20.013,-4.339 20.054,-21.236 0.014,-3.558 0.041,-5.246 0.069,-5.779 0.027,1.668 0.042,7.708 0.069,14.705 l 0,-27.846 c 0,-0.388 -0.291,-0.691 -0.678,-0.691 l -72.354,0 c -0.388,0 -0.693,0.303 -0.693,0.691 l 0,39.464 C -0.693,-0.312 -0.388,0 0,0 m 0,32.081 71.552,0 c 0.373,0 0.691,-0.312 0.691,-0.699 l 0,-19.438 c 0,-0.395 -0.318,-0.685 -0.691,-0.685 L 0,11.259 c -0.388,0 -0.693,0.29 -0.693,0.685 l 0,19.438 c 0,0.387 0.305,0.699 0.693,0.699 m -21.106,10.441 c -0.401,0 -0.705,-0.311 -0.705,-0.69 l 0,-85.641 c 1.412,-17.12 17.839,-19.01 22.074,-19.211 l 83.051,0 c 0.374,0 0.694,0.299 0.694,0.687 l 0,35.318 c -0.029,0.547 -0.057,2.221 -0.098,5.75 C 83.688,0.388 55.234,0.083 55.234,0.083 l 28.774,0.179 0,23.467 c -0.029,-4.035 -0.07,-7.398 -0.098,-8.395 -0.014,0.541 -0.041,2.208 -0.056,5.75 C 83.799,40.032 66.305,42.26 61.932,42.522 l -83.038,0 z"
             style="fill:#292929;fill-opacity:1;fill-rule:nonzero;stroke:none"
             id="path34"
             inkscape:connector-curvature="0" /></g><g
           id="g36"
           transform="translate(422.7949,265.8779)"><path
             d="m 0,0 c -4.608,0 -9.071,0.782 -13.183,2.2 -2.054,0.637 -4.033,1.488 -5.88,2.477 -13.175,6.948 -22.179,20.691 -22.179,36.565 0,9.924 3.473,19.066 9.286,26.151 -1.349,-4.464 -2.054,-9.288 -2.054,-14.173 0,-15.942 7.508,-30.046 19.126,-39.116 1.701,-1.344 3.474,-2.548 5.39,-3.683 C -2.2,6.097 6.373,3.611 15.584,3.611 l 1.426,0 C 11.834,1.272 6.091,0 0,0 m 90.983,-66.111 c 1.342,1.348 2.761,2.55 4.318,3.611 0,0.076 0,0.076 0.076,0.076 0.069,0.215 0.069,0.491 -0.145,0.713 L 38.121,5.46 c 9.426,9.494 15.163,22.531 15.163,36.918 0,13.113 -4.747,25.015 -12.754,34.225 -1.349,1.633 -2.837,3.191 -4.463,4.533 -6.38,5.882 -14.102,10.137 -22.675,12.261 -2.057,0.499 -4.111,0.921 -6.236,1.136 -2.124,0.282 -4.249,0.422 -6.449,0.422 -8.007,0 -15.516,-1.772 -22.317,-5.031 -1.916,-0.852 -3.758,-1.841 -5.529,-2.976 -14.879,-9.28 -24.732,-25.791 -24.732,-44.57 0,-20.484 11.626,-38.198 28.697,-46.841 1.916,-0.989 3.826,-1.84 5.882,-2.554 5.599,-2.048 11.694,-3.183 17.999,-3.183 12.33,0 23.665,4.249 32.668,11.405 l 57.04,-67.027 c 0.14,-0.145 0.355,-0.289 0.568,-0.289"
             style="fill:#292929;fill-opacity:1;fill-rule:nonzero;stroke:none"
             id="path38"
             inkscape:connector-curvature="0" /></g><g
           id="g40"
           transform="translate(325.9043,350.6118)"><path
             d="m 0,0 c 0,0 22.849,0.186 22.903,-21.465 0.07,-21.638 0.208,21.514 0.208,21.514 L 0,0 z"
             style="fill:#292929;fill-opacity:1;fill-rule:nonzero;stroke:none"
             id="path42"
             inkscape:connector-curvature="0" /></g><g
           id="g44"><g
             id="g46" /><g
             id="g52"><g
               clip-path="url(#clipPath48)"
               id="g54"
               style="opacity:0.74429297"><g
                 transform="translate(369.2363,412.6001)"
                 id="g56"><path
                   d="m 0,0 c 0,-14.996 -12.166,-27.153 -27.154,-27.153 -14.976,0 -27.139,12.157 -27.139,27.153 0,14.989 12.163,27.146 27.139,27.146 C -12.166,27.146 0,14.989 0,0"
                   style="fill:#2a6d9d;fill-opacity:1;fill-rule:nonzero;stroke:none"
                   id="path58"
                   inkscape:connector-curvature="0" /></g></g></g></g><g
           id="g60"
           transform="translate(395.6562,352.8257)"><path
             d="m 0,0 -36.704,37.837 c -0.146,0.147 -0.146,0.285 -0.146,0.5 0,0.137 0.071,0.283 0.146,0.422 l 3.398,3.259 c 0.145,0.145 0.353,0.214 0.499,0.214 0.138,0 0.283,-0.069 0.422,-0.214 L 5.528,2.976 C 3.612,2.125 1.771,1.135 0,0"
             style="fill:#292929;fill-opacity:1;fill-rule:nonzero;stroke:none"
             id="path62"
             inkscape:connector-curvature="0" /></g><g
           id="g64"><g
             id="g66" /><g
             id="g72"><g
               clip-path="url(#clipPath68)"
               id="g74"
               style="opacity:0.80000299"><g
                 transform="translate(474.5771,475.9175)"
                 id="g76"><path
                   d="m 0,0 c 0,-8.879 -7.203,-16.082 -16.081,-16.082 -8.893,0 -16.09,7.203 -16.09,16.082 0,8.884 7.197,16.088 16.09,16.088 C -7.203,16.088 0,8.884 0,0"
                   style="fill:#33446b;fill-opacity:1;fill-rule:nonzero;stroke:none"
                   id="path78"
                   inkscape:connector-curvature="0" /></g></g></g></g><g
           id="g80"
           transform="translate(436.1865,359.2754)"><path
             d="M 0,0 C -2.057,0.499 -4.11,0.921 -6.235,1.135 L 15.52,101.397 c 0.07,0.214 0.138,0.429 0.353,0.499 0.145,0.068 0.283,0.068 0.422,0 l 4.893,-0.99 c 0.138,-0.076 0.352,-0.216 0.422,-0.36 0.069,-0.138 0.145,-0.276 0.069,-0.492 L 0,0 z"
             style="fill:#292929;fill-opacity:1;fill-rule:nonzero;stroke:none"
             id="path82"
             inkscape:connector-curvature="0" /></g><g
           id="g84"
           transform="translate(513.7783,199.7666)"><path
             d="M 0,0 C 1.342,1.349 2.761,2.551 4.317,3.611 4.249,3.542 4.249,3.472 4.18,3.404 L 0.422,0.212 C 0.284,0.067 0.138,0 0,0"
             style="fill:#292929;fill-opacity:1;fill-rule:nonzero;stroke:none"
             id="path86"
             inkscape:connector-curvature="0" /></g><g
           id="g88"><g
             id="g90" /><g
             id="g96"><g
               clip-path="url(#clipPath92)"
               id="g98"
               style="opacity:0.68035901"><g
                 transform="translate(540.8408,132.5947)"
                 id="g100"><path
                   d="m 0,0 c -21.61,0 -39.109,17.432 -39.109,39.04 0,11.052 4.608,21.115 12.047,28.132 1.341,1.349 2.76,2.551 4.317,3.611 0,0.076 0,0.076 0.076,0.076 C -16.296,75.461 -8.428,78.16 0,78.16 21.543,78.16 39.051,60.652 39.051,39.04 39.051,17.432 21.543,0 0,0"
                   style="fill:#6a90ca;fill-opacity:1;fill-rule:nonzero;stroke:none"
                   id="path102"
                   inkscape:connector-curvature="0" /></g></g></g></g><g
           id="g104"
           transform="translate(385.7324,214.6504)"><path
             d="m 0,0 c -0.207,-0.075 -0.491,-0.075 -0.706,0 l -4.532,2.056 c -0.283,0.067 -0.429,0.276 -0.429,0.566 0,0.138 0,0.208 0.069,0.354 l 19.487,43.789 c 1.916,-0.99 3.826,-1.84 5.882,-2.554 L 0.215,0.354 C 0.215,0.214 0.077,0.145 0,0"
             style="fill:#292929;fill-opacity:1;fill-rule:nonzero;stroke:none"
             id="path106"
             inkscape:connector-curvature="0" /></g><g
           id="g108"><g
             id="g110" /><g
             id="g116"><g
               clip-path="url(#clipPath112)"
               id="g118"
               style="opacity:0.60000598"><g
                 transform="translate(396.0996,195.4131)"
                 id="g120"><path
                   d="m 0,0 c 0,-12.706 -10.284,-23.01 -22.988,-23.01 -12.704,0 -23.017,10.304 -23.017,23.01 0,12.698 10.313,23.009 23.017,23.009 C -10.284,23.009 0,12.698 0,0"
                   style="fill:#294343;fill-opacity:1;fill-rule:nonzero;stroke:none"
                   id="path122"
                   inkscape:connector-curvature="0" /></g></g></g></g><g
           id="g124"
           transform="translate(463.3252,342.4805)"><path
             d="m 0,0 c -1.35,1.634 -2.837,3.191 -4.463,4.533 l 30.115,25.935 c 0.207,0.215 0.568,0.215 0.775,0 0.076,0 0.076,0 0.145,-0.068 l 3.26,-3.758 c 0.069,-0.068 0.069,-0.068 0.069,-0.138 0.214,-0.284 0.069,-0.637 -0.138,-0.851 L 0,0 z"
             style="fill:#292929;fill-opacity:1;fill-rule:nonzero;stroke:none"
             id="path126"
             inkscape:connector-curvature="0" /></g><g
           id="g128"><g
             id="g130" /><g
             id="g136"><g
               clip-path="url(#clipPath132)"
               id="g138"
               style="opacity:0.84931898"><g
                 transform="translate(538.2539,388.4844)"
                 id="g140"><path
                   d="m 0,0 c 0,-14.774 -11.979,-26.752 -26.745,-26.752 -14.774,0 -26.753,11.978 -26.753,26.752 0,14.767 11.979,26.738 26.753,26.738 C -11.979,26.738 0,14.767 0,0"
                   style="fill:#98aaaf;fill-opacity:1;fill-rule:nonzero;stroke:none"
                   id="path142"
                   inkscape:connector-curvature="0" /></g></g></g></g><g
           id="g144"><g
             id="g146" /><g
             id="g152"><g
               clip-path="url(#clipPath148)"
               id="g154"
               style="opacity:0.5"><g
                 transform="translate(422.7949,265.8779)"
                 id="g156"><path
                   d="m 0,0 c -4.608,0 -9.071,0.782 -13.183,2.2 -2.054,0.637 -4.033,1.488 -5.88,2.477 -13.175,6.948 -22.179,20.691 -22.179,36.565 0,9.924 3.473,19.066 9.286,26.151 -1.349,-4.464 -2.054,-9.288 -2.054,-14.173 0,-15.942 7.508,-30.046 19.126,-39.116 1.701,-1.344 3.474,-2.548 5.39,-3.683 C -2.2,6.097 6.373,3.611 15.584,3.611 l 1.426,0 C 11.834,1.272 6.091,0 0,0"
                   style="fill:#292929;fill-opacity:1;fill-rule:nonzero;stroke:none"
                   id="path158"
                   inkscape:connector-curvature="0" /></g></g></g></g><g
           id="g160"><g
             id="g162" /><g
             id="g168"><g
               clip-path="url(#clipPath164)"
               id="g170"
               style="opacity:0.5"><g
                 transform="translate(359.6172,208.3037)"
                 id="g172"><path
                   d="m 0,0 c -2.671,-3.271 -4.276,-7.465 -4.276,-12.005 0,-10.483 8.483,-18.974 18.96,-18.974 2.782,0 5.411,0.617 7.793,1.682 -0.209,-0.009 -0.43,-0.015 -0.638,-0.015 -12.58,0 -22.808,10.2 -22.808,22.773 0,2.277 0.347,4.471 0.969,6.539"
                   style="fill:#ffffff;fill-opacity:1;fill-rule:nonzero;stroke:none"
                   id="path174"
                   inkscape:connector-curvature="0" /></g></g></g></g><g
           id="g176"><g
             id="g178" /><g
             id="g184"><g
               clip-path="url(#clipPath180)"
               id="g186"
               style="opacity:0.5"><g
                 transform="translate(515.8467,190.4238)"
                 id="g188"><path
                   d="m 0,0 c -4.4,-5.383 -7.043,-12.275 -7.043,-19.771 0,-17.251 13.985,-31.214 31.222,-31.214 4.568,0 8.898,0.996 12.815,2.767 -0.347,-0.006 -0.706,-0.029 -1.058,-0.029 -20.712,0 -37.506,16.783 -37.506,37.494 0,3.736 0.553,7.349 1.57,10.753"
                   style="fill:#ffffff;fill-opacity:1;fill-rule:nonzero;stroke:none"
                   id="path190"
                   inkscape:connector-curvature="0" /></g></g></g></g><g
           id="g192"><g
             id="g194" /><g
             id="g200"><g
               clip-path="url(#clipPath196)"
               id="g202"
               style="opacity:0.5"><g
                 transform="translate(495.2949,402.9331)"
                 id="g204"><path
                   d="m 0,0 c -3.093,-3.785 -4.955,-8.643 -4.955,-13.923 0,-12.137 9.848,-21.984 21.984,-21.984 3.225,0 6.278,0.705 9.031,1.945 -0.255,-0.015 -0.491,-0.021 -0.748,-0.021 -14.585,0 -26.412,11.825 -26.412,26.413 0,2.628 0.388,5.175 1.1,7.57"
                   style="fill:#ffffff;fill-opacity:1;fill-rule:nonzero;stroke:none"
                   id="path206"
                   inkscape:connector-curvature="0" /></g></g></g></g><g
           id="g208"><g
             id="g210" /><g
             id="g216"><g
               clip-path="url(#clipPath212)"
               id="g218"
               style="opacity:0.5"><g
                 transform="translate(450.0332,485.3765)"
                 id="g220"><path
                   d="m 0,0 c -1.813,-2.215 -2.894,-5.044 -2.894,-8.124 0,-7.079 5.738,-12.822 12.816,-12.822 1.882,0 3.668,0.415 5.266,1.141 -0.145,-0.007 -0.284,-0.014 -0.437,-0.014 -8.503,0 -15.389,6.892 -15.389,15.404 0,1.536 0.222,3.017 0.638,4.415"
                   style="fill:#ffffff;fill-opacity:1;fill-rule:nonzero;stroke:none"
                   id="path222"
                   inkscape:connector-curvature="0" /></g></g></g></g><g
           id="g224"><g
             id="g226" /><g
             id="g232"><g
               clip-path="url(#clipPath228)"
               id="g234"
               style="opacity:0.5"><g
                 transform="translate(326.166,427.5405)"
                 id="g236"><path
                   d="m 0,0 c -2.976,-3.66 -4.773,-8.339 -4.773,-13.425 0,-11.708 9.478,-21.188 21.187,-21.188 3.101,0 6.049,0.671 8.691,1.868 -0.249,0 -0.469,-0.02 -0.72,-0.02 -14.045,0 -25.45,11.396 -25.45,25.457 0,2.539 0.374,4.99 1.065,7.308"
                   style="fill:#ffffff;fill-opacity:1;fill-rule:nonzero;stroke:none"
                   id="path238"
                   inkscape:connector-curvature="0" /></g></g></g></g></g></g><text
       transform="scale(0.98149818,-1.0188506)"
       id="text240"
       x="100.77179"
       y="-19.473167"
       style="font-size:2.37916136px"><tspan
         style="font-size:15.49087811px;font-variant:normal;font-weight:bold;font-stretch:normal;writing-mode:lr-tb;fill:#292929;fill-opacity:1;fill-rule:nonzero;stroke:none;font-family:Segoe UI;-inkscape-font-specification:SegoeUI-Bold"
         sodipodi:role="line"
         x="100.77179"
         y="-19.473167"
         id="tspan3098">PassGen</tspan></text>
</g></svg>